Coordinates
version=1
nRows=6
nColumns=34
inDegrees=yes

Units are S.I. units (second, meters, Newtons, ...)
If the header above contains a line with 'inDegrees', this indicates whether rotational values are in degrees (yes) or radians (no).

endheader
time	pelvis_tilt	pelvis_list	pelvis_rotation	pelvis_tx	pelvis_ty	pelvis_tz	hip_flexion_r	hip_adduction_r	hip_rotation_r	knee_angle_r	ankle_angle_r	subtalar_angle_r	mtp_angle_r	hip_flexion_l	hip_adduction_l	hip_rotation_l	knee_angle_l	ankle_angle_l	subtalar_angle_l	mtp_angle_l	lumbar_extension	lumbar_bending	lumbar_rotation	arm_flex_r	arm_add_r	arm_rot_r	elbow_flex_r	pro_sup_r	arm_flex_l	arm_add_l	arm_rot_l	elbow_flex_l	pro_sup_l
      1.65000000	    -81.95804901	     13.60071787	    -11.08015688	     -3.40229753	      0.71888184	      0.24400078	    119.99999986	    -50.00000023	      5.61436372	      0.00000000	     50.00000000	    -35.00000000	      0.00000000	     94.54471240	    -34.53928644	    -21.99395231	    109.16496885	    -50.00000000	     27.86588851	      0.00000000	     83.60893245	     90.00000018	     83.23008383	    -49.97506145	    165.64688588	    120.75524443	     11.85601212	      0.00000000	     70.10388718	    -14.34924994	    372.90256833	      4.26435874	      2.62538489
      1.66666670	    -80.52461773	     15.38616820	    -10.49410561	     -3.40537276	      0.72279888	      0.24263340	    119.99999986	    -50.00000023	      7.94102421	      0.00000000	     50.00000000	    -35.00000000	      0.00000000	     93.82662572	    -34.43653757	    -19.95565671	    109.62611229	    -50.00000000	     27.74780612	      0.00000000	     83.19804940	     90.00000018	     82.81920083	    -49.93501127	    168.34739136	    120.92646829	     12.88578890	      0.00000000	     68.60030224	    -15.81202490	    372.94387315	      3.41848561	      2.59709772
      1.68333330	    -80.40689215	     17.80927532	     -9.99847813	     -3.40475835	      0.72439434	      0.24156508	    119.99999986	    -50.00000023	      9.05737670	      0.00000000	     50.00000000	    -35.00000000	      0.00000000	     94.41722826	    -34.73933318	    -19.76573117	    109.50914112	    -50.00000000	     27.71499994	      0.00000000	     83.30500943	     90.00000018	     82.92616087	    -49.97907939	    168.69957982	    120.95810604	     13.02280954	      0.00000000	     68.38948378	    -16.19302044	    372.94877634	      3.28505881	      2.59594484
      1.70000000	    -78.46122288	     21.63551015	    -10.24457705	     -3.40576521	      0.72449879	      0.24221453	    119.99999986	    -50.00000023	     10.47069968	      0.00000000	     50.00000000	    -35.00000000	      0.00000000	     92.65441233	    -34.89941954	    -23.97015824	    109.73328908	    -50.00000000	     28.33053009	      0.00000000	     83.06668916	     90.00000018	     82.68784081	    -52.15626282	    173.54766556	    121.41579264	     14.39824875	      0.00000000	     67.33098621	    -19.44288084	    373.30993724	      3.31972163	      2.77578729
      1.71666670	    -78.44867871	     22.92186748	    -10.24643768	     -3.40526715	      0.72226420	      0.24410093	    119.99999986	    -50.00000023	      9.83124665	      0.00000000	     50.00000000	    -35.00000000	      0.00000000	     93.03755451	    -35.27897772	    -24.78837321	    109.90681339	    -50.00000000	     28.75106213	      0.00000000	     83.02531596	     90.00000018	     82.64646766	    -52.32169986	    173.76214757	    121.55618715	     14.46949894	      0.00000000	     66.99250893	    -18.97024715	    373.40201292	      3.40376507	      2.82314648
      1.73333330	    -80.29445509	     23.77786035	    -10.07791341	     -3.39676497	      0.71751560	      0.24681644	    119.99999986	    -50.00000023	      6.76009276	      0.00000000	     50.00000000	    -35.00000000	      0.00000000	     92.55293000	    -35.48654328	    -27.89974497	    109.13412879	    -50.00000000	     29.60993011	      0.00000000	     84.14655134	     90.00000018	     83.76770330	    -52.28731799	    174.91307024	    122.35892836	     14.83469990	      0.00000000	     67.37411216	    -16.07545534	    373.92133579	      4.39346960	      3.07871910
